<svg width="100" height="100" viewBox="0 0 100 100" fill="none" xmlns="http://www.w3.org/2000/svg">
<g clip-path="url(#clip0_6_6)">
<rect width="100" height="100" fill="#FFF8AF"/>
<path d="M74.488 24.912V78H62.968C61.496 75.44 59.192 72.656 56.056 69.648C52.92 66.576 49.4 64.208 45.496 62.544V66.096C45.496 70.192 44.536 73.36 42.616 75.6C40.76 77.84 37.496 78.96 32.824 78.96C28.92 78.96 26.136 77.936 24.472 75.888C22.808 73.84 21.976 71.28 21.976 68.208C21.976 65.328 22.776 62.864 24.376 60.816C26.04 58.704 28.856 57.392 32.824 56.88V42C29.816 42 27.384 41.2 25.528 39.6C23.736 38 22.84 35.76 22.84 32.88C22.84 30 23.736 27.792 25.528 26.256C27.32 24.656 29.88 23.856 33.208 23.856C37.432 23.856 40.536 24.848 42.52 26.832C44.504 28.816 45.496 31.504 45.496 34.896V58.224C49.08 59.44 52.376 61.104 55.384 63.216C58.392 65.328 60.536 67.312 61.816 69.168V24.912H74.488ZM32.728 38.256C34.072 38.256 35.16 37.808 35.992 36.912C36.888 35.952 37.336 34.608 37.336 32.88C37.336 31.152 36.888 29.808 35.992 28.848C35.16 27.888 34.072 27.408 32.728 27.408C31.384 27.408 30.264 27.888 29.368 28.848C28.472 29.808 28.024 31.152 28.024 32.88C28.024 34.608 28.472 35.952 29.368 36.912C30.264 37.808 31.384 38.256 32.728 38.256ZM29.656 74.736C31.768 74.736 32.824 73.072 32.824 69.744V60.624C28.28 61.456 26.008 64.016 26.008 68.304C26.008 70.16 26.328 71.696 26.968 72.912C27.608 74.128 28.504 74.736 29.656 74.736Z" fill="#FF23BF"/>
</g>
<defs>
<clipPath id="clip0_6_6">
<rect width="100" height="100" fill="white"/>
</clipPath>
</defs>
</svg>
