<svg width="119" height="62" viewBox="0 0 119 62" fill="none" xmlns="http://www.w3.org/2000/svg">
<path d="M23.7302 16.6466C20.7207 16.6466 18.1754 17.8759 15.8542 19.84C13.9142 21.4815 11.8647 22.0155 10.6803 24.3844C10.103 25.5389 8.17432 27.8542 9.23709 29.2206C10.2914 30.5761 12.5802 30.3661 14.1961 30.7252C17.5808 31.4773 21.4443 34.1332 24.9891 33.4887C26.0699 33.2922 26.984 32.7675 27.9983 32.3986C28.9619 32.0482 28.8069 31.4416 29.3186 30.8019C29.655 30.3815 29.8099 28.681 29.8099 28.1152C29.8099 27.0586 30.3626 26.0403 30.3626 24.9371C30.3626 23.4383 30.9143 21.1159 29.3801 20.2392C28.2362 19.5855 27.168 18.6786 26.2788 17.6906C25.9249 17.2974 24.9739 16.1974 25.4497 15.6026C25.9481 14.9796 26.5888 14.8696 27.0464 14.2976C28.613 12.3393 30.8076 10.2783 32.8498 8.78592C35.8657 6.58203 39.5319 5.43425 43.0748 4.54853C46.5646 3.67608 49.5833 2.55266 53.2384 2.55266C54.1438 2.55266 56.8459 2.27631 55.9405 2.27631C54.6076 2.27631 53.2528 2.40309 51.9334 2.56801C47.8054 3.08402 43.2081 3.99477 39.6358 6.26805C37.8873 7.38073 35.5062 7.99667 33.9552 9.46145C32.2854 11.0384 30.8276 12.3658 28.8427 13.4685C28.2799 13.7812 23.5794 15.8175 25.6647 15.8175C28.145 15.8175 30.7483 15.5412 33.3104 15.5412C34.3325 15.5412 59.0406 13.3711 59.1032 14.4358C59.2135 16.3102 56.09 15.7774 55.0961 15.5565C53.112 15.1156 51.3654 14.9885 49.2927 14.9885C46.962 14.9885 44.7705 15.8175 42.3993 15.8175C38.3745 15.8175 34.2754 16.0939 30.2091 16.0939C29.8354 16.0939 27.5398 16.3702 28.5664 16.3702C29.7644 16.3702 30.8373 16.0939 32.0208 16.0939C36.0863 16.0939 40.1415 15.8175 44.1802 15.8175C46.0648 15.8175 47.8836 15.8261 49.7073 16.3088C50.4903 16.5161 51.5957 16.9229 52.3326 16.9229C54.0681 16.9229 55.269 17.752 57.0306 17.752C58.7347 17.752 60.4389 17.752 62.1431 17.752C63.6006 17.752 59.7668 14.4727 58.8269 14.1594" stroke="#FF23BF" stroke-width="3" stroke-linecap="round"/>
<path d="M31.468 11.1196C34.0058 11.1196 37.2793 9.67392 39.4208 8.35609C40.2872 7.82291 41.7284 7.19676 42.6603 6.98968C43.5853 6.78411 44.0033 6.10998 44.7329 5.65398C45.8948 4.92781 47.4982 3.26775 48.8782 3.10541C49.6036 3.02007 50.1221 2.5527 50.9508 2.5527C52.8237 2.5527 54.7013 2.10637 56.616 2" stroke="#FF23BF" stroke-width="3" stroke-linecap="round"/>
<path d="M22.6248 33.7804C22.6248 35.6141 23.7599 38.1996 24.4979 39.8601C24.8288 40.6048 24.5675 41.8049 25.0506 42.4087C25.4182 42.8683 25.4241 44.5023 25.3883 45.1108C25.3221 46.2367 19.2322 45.3872 18.6024 45.3872C16.9822 45.3872 15.2544 45.6039 13.843 46.4926C12.4855 47.3473 10.821 47.4526 9.48277 48.3042C7.18891 49.7639 4.61857 51.3056 2.88103 53.5395C2.45119 54.0922 1.1512 55.8059 2.85033 55.3205C3.34448 55.1793 4.05599 54.052 4.52379 53.6777C5.28401 53.0695 6.27455 52.92 7.13378 52.4188C8.24883 51.7683 9.44548 51.0082 10.7417 50.6378C11.7643 50.3457 13.2943 49.4098 14.2115 48.8262C15.2589 48.1597 16.7517 48.1817 17.9268 47.6594C19.7733 46.8388 22.31 46.8785 24.2829 46.7689C25.1977 46.7181 26.1301 46.7689 27.0465 46.7689C27.6741 46.7689 25.8171 47.1444 25.3269 47.5366C24.7864 47.969 23.7788 47.9207 23.1775 48.427C22.0206 49.4013 20.4967 50.1253 19.37 51.252C17.2245 53.3974 14.6302 55.0289 12.2616 56.8711C11.3219 57.602 10.2444 58.6795 9.51347 59.6193C8.53801 60.8734 10.1379 59.7778 10.5882 59.3276C11.566 58.3498 12.8183 57.7519 14.0579 57.1321C15.9421 56.19 17.2131 54.7998 18.802 53.5088C20.1257 52.4333 21.2925 51.593 22.763 50.776C23.3215 50.4658 24.6502 49.8088 25.2502 49.8088C27.0806 49.8088 28.3767 48.7034 30.3627 48.7034" stroke="#FF23BF" stroke-width="3" stroke-linecap="round"/>
<path d="M30.3625 48.7034C33.3564 48.7034 36.3502 48.7034 39.344 48.7034C41.6961 48.7034 44.5266 48.7644 46.6673 47.8129C47.9022 47.2641 49.3037 47.2027 50.5362 46.554C51.6186 45.9843 52.852 45.6169 53.9906 45.1108C56.0488 44.1961 58.1936 42.4746 60.4849 42.3473C62.9956 42.2078 65.4852 41.7946 68.0845 41.7946C71.3355 41.7946 69.8803 44.22 72.0916 45.6021C73.1717 46.2771 73.9195 47.175 75.1315 47.8129C76.793 48.6874 78.9522 49.4916 80.7814 49.8242C82.0442 50.0538 83.0712 50.3615 84.3893 50.3615C84.7551 50.3615 85.6654 50.5281 85.9092 50.2233C86.1134 49.9681 86.9517 49.5325 87.291 49.5325" stroke="#FF23BF" stroke-width="3" stroke-linecap="round"/>
<path d="M89.2255 49.8088C91.7097 49.8088 93.3772 51.4701 95.5816 52.5723C98.1513 53.8572 100.613 55.729 103.335 56.5794C105.338 57.2053 106.777 57.823 108.908 57.823C109.66 57.823 111.917 57.823 111.165 57.823C110.309 57.823 109.745 57.4679 109 57.2549C107.926 56.948 106.801 56.0298 105.653 55.6122C103.236 54.7331 100.987 53.4099 98.56 52.5109C97.0337 51.9456 95.0666 50.6519 93.7853 49.6553C93.1836 49.1873 92.3079 48.8994 91.774 48.3656C91.5064 48.098 90.8548 47.0453 90.8836 47.0453" stroke="#FF23BF" stroke-width="3" stroke-linecap="round"/>
<path d="M91.4363 47.3217C91.4363 45.5712 90.3309 43.8211 90.3309 42.0096C90.3309 39.8348 90.0545 37.6962 90.0545 35.4999C90.0545 32.7221 89.6279 29.7612 87.5674 27.7007" stroke="#FF23BF" stroke-width="3" stroke-linecap="round"/>
<path d="M87.2911 27.977C87.1913 27.1786 85.7148 26.516 85.3566 25.8891C84.8728 25.0424 83.7449 24.7188 83.1458 23.97C82.2216 22.8147 78.3484 23.0782 77.0661 23.0027C74.7723 22.8678 72.7182 23.147 70.5565 23.5401C67.6492 24.0687 64.7733 25.2135 61.7439 25.2135C56.3158 25.2135 51.1258 26.5953 45.7002 26.5953C44.0881 26.5953 42.4761 26.5953 40.864 26.5953C39.4635 26.5953 38.3214 26.1124 36.9951 26.0426C36.0282 25.9917 34.498 25.5578 33.7403 24.8758C33.215 24.403 32.6219 23.2791 32.0208 23.2791" stroke="#FF23BF" stroke-width="3" stroke-linecap="round"/>
<path d="M85.9093 27.7007C88.3398 27.7007 90.5188 25.8507 92.6953 25.2288C94.6663 24.6657 93.6664 25.6158 94.8907 26.5953C95.6036 27.1655 95.8339 28.2662 96.8098 28.5451C97.5648 28.7608 99.683 29.6351 98.8978 29.6351C98.2018 29.6351 97.5058 29.6351 96.8098 29.6351C95.8842 29.6351 95.0676 29.1306 94.1999 29.0824C93.7484 29.0573 90.9122 29.0186 90.6687 28.7447C90.2475 28.2708 92.6672 26.997 92.8181 27.148" stroke="#FF23BF" stroke-width="3" stroke-linecap="round"/>
<path d="M90.3308 43.4527C92.9573 43.4527 95.5021 42.9 98.2068 42.9C99.4546 42.9 100.871 42.7097 101.876 43.5141C102.801 44.2536 103.724 44.8914 104.839 45.3872C107.057 46.3728 109.849 48.427 112.301 48.427C113.53 48.427 114.727 48.9797 116.032 48.9797C116.71 48.9797 116.861 51.1831 116.861 51.8507C116.861 51.8911 116.123 51.1133 115.97 50.9756C115.591 50.6344 115.168 50.2962 114.803 49.9316C113.79 48.9187 113.034 48.9797 111.61 48.9797C110.454 48.9797 109.165 48.7034 108.155 48.7034C107.184 48.7034 106.226 47.9284 105.254 47.8743C104.194 47.8154 102.822 46.7651 101.815 46.4772C100.743 46.171 99.5346 45.7335 98.345 45.6635C97.5054 45.6141 95.7365 44.6577 94.8906 44.2818C93.5844 43.7012 92.2993 43.7291 90.8835 43.7291" stroke="#FF23BF" stroke-width="3" stroke-linecap="round"/>
<path d="M98.0687 41.7946C94.6775 41.7946 90.7388 40.6409 87.5674 39.5838" stroke="#FF23BF" stroke-width="3" stroke-linecap="round"/>
<path d="M109.123 59.7575C110.001 59.7575 111.334 60.4786 111.334 59.3429C111.334 58.5928 110.429 57.823 109.676 57.823" stroke="#FF23BF" stroke-width="3" stroke-linecap="round"/>
<path d="M108.017 59.4811C106.122 59.4811 104.126 58.6186 103.043 56.994" stroke="#FF23BF" stroke-width="3" stroke-linecap="round"/>
<path d="M10.652 27.7189C10.652 29.6272 11.168 26.4281 11.352 25.7844C11.4803 25.3353 12.0265 22.9792 12.0265 24.5117C12.0265 25.0643 11.7535 27.4898 12.3701 27.4898C14.2856 27.4898 13.8176 26.417 14.6737 25.0717C15.3031 24.0826 15.9209 22.2432 15.9209 21.0755C15.9209 20.3455 15.4917 20.3883 16.0354 20.3883C16.6357 20.3883 17.1943 20.5567 16.6081 21.1773C16.4214 21.3751 13.8187 23.3966 13.6428 22.7809C13.4126 21.9754 15.4054 20.8973 16.0354 20.6173C18.0945 19.7022 20.1915 18.0974 22.4497 18.0974C23.7652 18.0974 24.2213 18.0491 25.1351 18.9629C25.82 19.6478 27.0719 20.4864 27.5532 21.3046C28.0661 22.1766 28.8317 22.8271 29.3222 23.71C30.1128 25.1329 28.6077 24.7408 27.4896 24.7408C25.8095 24.7408 17.8633 24.0711 21.1389 20.7955C22.8836 19.0508 26.4089 22.9104 27.095 24.2827C27.6266 25.3459 24.3795 25.0605 23.8115 24.9572C22.2931 24.6811 20.2459 23.994 19.0135 23.0354C18.5636 22.6855 18.1613 22.6341 17.8681 22.1064C17.588 21.6022 17.7349 20.6566 18.4408 20.6173C19.3873 20.5648 18.8756 23.0045 18.4408 23.4936C17.2717 24.8089 16.1484 26.1169 14.89 27.3753C14.5446 27.7207 14.2585 28.1086 13.91 28.4571C13.326 29.0411 13.628 28.7757 14.2028 28.648C16.2675 28.1891 18.2127 27.9972 20.4007 28.3552C21.8108 28.586 23.9597 28.9475 25.0969 29.8952C25.134 29.9261 26.4043 30.4679 26.3187 30.4679C25.3739 30.4679 24.425 30.4957 23.4806 30.4679C22.6847 30.4445 21.5865 30.1204 20.8207 29.8952C19.3687 29.4681 17.7395 29.6329 16.3281 29.1443C15.2425 28.7685 13.9773 27.948 12.8283 27.948C12.2679 27.948 12.3317 28.8643 12.9428 28.8643C13.8794 28.8643 14.755 29.0934 15.6791 29.0934C17.1234 29.0934 18.4431 29.2506 19.828 29.6661C21.3711 30.129 23.4163 30.5977 24.8042 31.3842C25.546 31.8046 26.0142 32.0715 24.7406 32.0715C24.2536 32.0715 23.0908 32.2658 23.5315 31.3842C24.1554 30.1365 25.6824 30.9331 26.8023 30.6843C27.8656 30.448 26.5915 29.3734 26.2423 29.2207C25.0347 28.6923 23.8396 28.0925 22.6152 27.5916C21.4043 27.0963 20.0457 26.6865 18.7717 26.3953C17.4539 26.0941 18.4891 26.1153 19.3317 26.1153C22.1058 26.1153 24.9117 26.1631 27.6296 26.8026C28.8851 27.098 29.2112 27.1928 27.8205 27.0189C26.9265 26.9072 26.1418 26.3444 25.2242 26.3444C24.9295 26.3444 25.8346 26.3232 26.1023 26.4462C27.0057 26.8613 27.8213 27.4066 28.7495 27.7698C30.6645 28.5191 32.4823 29.4094 34.4766 29.9079C35.5568 30.178 37.0973 31.0426 35.3929 29.8316C34.4197 29.1401 33.272 28.5309 32.4148 27.7189C31.7321 27.0721 31.7164 26.8208 31.4858 26.0135C31.3803 25.6442 32.3506 26.2487 32.6439 26.3953C33.9192 27.0329 34.9791 27.8594 36.322 28.4189C38.3755 29.2745 40.4048 30.3129 42.5072 31.0406C43.3762 31.3414 44.233 31.7777 45.1162 32.0206C45.7361 32.191 46.4613 32.1955 47.0252 32.5296C48.551 33.4338 46.8716 31.96 46.3889 31.5624C45.213 30.594 44.0514 29.4998 42.7108 28.7625C41.1946 27.9286 39.3793 26.9942 37.6965 26.5735C36.4897 26.2718 37.0575 26.5001 37.9128 26.7517C38.8599 27.0302 39.8026 27.4611 40.7127 27.8462C43.0028 28.815 45.089 29.5298 47.5343 29.9588C51.2979 30.6191 55.017 30.697 58.823 30.697C59.5264 30.697 58.3948 30.398 58.1739 30.2897C57.5419 29.9799 56.8976 29.6785 56.2904 29.3225C55.4208 28.8127 53.7701 28.4952 52.7777 28.4189C50.8598 28.2713 48.8652 27.948 46.9489 27.948C45.8348 27.948 45.6383 27.7137 46.618 28.1262C49.2489 29.2339 52.8933 29.0934 55.654 29.0934C60.3992 29.0934 64.8634 28.3129 69.5135 27.7316C69.8941 27.6841 71.2628 27.218 70.328 26.8026C69.022 26.2221 67.6872 26.1361 66.37 25.6572C65.1911 25.2285 63.7928 25.4281 62.5519 25.4281C61.2776 25.4281 59.8076 25.23 58.543 25.4408C57.9866 25.5335 55.2545 26.4126 55.1068 26.9298C54.7345 28.2327 58.7784 28.0452 59.3957 28.1262C64.2746 28.766 69.067 27.6092 73.8279 26.8535C75.0113 26.6656 76.1165 26.3444 77.3151 26.3444C77.8278 26.3444 78.5767 26.4835 79.0332 26.2299C79.9498 25.7206 79.438 25.6005 78.5877 25.199C77.7345 24.7961 76.7562 24.3852 75.8133 24.2954C74.5918 24.1791 72.2204 23.9853 71.1298 24.5627C70.2293 25.0394 72.2923 25.4183 72.5552 25.4281C73.9415 25.4794 75.2361 26.1342 76.6024 26.3444C78.8102 26.6841 81.1485 28.1058 83.2203 28.9534C84.1535 29.3352 85.0939 29.961 85.7911 30.697C86.8721 31.838 86.6131 33.6834 87.6238 34.8205C87.7566 34.9699 88.5647 36.1714 88.1583 35.635C86.6591 33.656 85.26 31.6272 83.7294 29.6661C82.5009 28.0921 81.0904 26.7014 79.7841 25.2499C79.1895 24.5893 80.3772 24.7218 80.7513 24.8554C81.9377 25.2791 83.0351 26.2499 83.7294 27.3116C84.1377 27.9361 84.5248 28.5031 85.0148 29.1061C85.8614 30.1481 87.3374 30.8575 87.9801 32.0715C88.8832 33.7772 88.7708 35.1755 89.1128 37.0222C89.3931 38.5356 89.2274 40.1692 89.2274 41.7057C89.2274 42.0791 89.493 43.8806 89.1765 44.162C88.7165 44.5708 83.3828 34.9991 83.2585 34.8077C82.9659 34.3577 81.0584 31.5541 82.7112 33.1151C83.8458 34.1866 85.2256 35.1329 86.122 36.4368C86.971 37.6717 87.6351 39.1402 88.1965 40.5221C88.6805 41.7134 89.7814 43.1761 89.9146 44.4419C90.0399 45.6321 90.3415 47.0371 88.9983 47.8273C87.8306 48.5142 87.493 48.2632 87.1783 46.8473C86.8742 45.4785 86.3127 44.0489 85.4602 42.9529C84.9415 42.2859 84.6757 41.349 84.4166 40.5348C83.7037 38.2943 82.9398 36.0663 82.1767 33.8532C81.5994 32.179 81.2891 31.3067 80.1913 29.8952C79.5293 29.044 77.4588 28.3438 76.3987 28.4062C75.4763 28.4604 77.7205 31.4404 77.7605 31.4988C79.4345 33.94 80.8952 36.6577 82.0494 39.3767C82.2981 39.9625 86.4532 49.2108 86.3511 49.24C85.6505 49.4401 84.9927 48.1145 84.4675 47.7509C82.9635 46.7096 81.8392 45.1205 80.3186 43.9965C78.2204 42.4457 75.4044 40.4406 75.2533 37.5695C75.1679 35.9475 74.6915 34.2108 74.5661 32.5805C74.4686 31.3138 73.4207 30.2757 73.4207 28.9789C73.4207 28.214 74.0954 28.1771 74.6806 28.1771C76.1164 28.1771 77.7817 29.9337 78.7659 30.8752C83.4947 35.3983 84.4166 41.7219 84.4166 47.98C84.4166 48.6092 84.5819 49.0236 83.8439 49.0236C83.2565 49.0236 82.5709 48.732 82.1258 48.3363C80.0366 46.4793 76.5917 46.4305 74.1588 45.1292C72.3826 44.1791 70.556 43.2457 68.8644 42.1511C68.2009 41.7218 66.9932 41.1068 66.5991 40.3185C66.4289 39.978 67.8186 40.0894 68.0372 40.0894C69.5762 40.0894 71.2161 41.1119 72.6316 41.693C75.6721 42.9412 78.6982 44.459 81.6422 45.931C83.0024 46.6111 81.6363 46.4753 80.9295 46.1219C78.1552 44.7348 75.3809 43.1248 72.7334 41.5148C71.3782 40.6906 69.3163 40.2358 68.2027 39.1221C67.5713 38.4908 67.0536 37.5711 66.4336 36.8822C65.6208 35.979 66.1996 36.2632 67.1463 36.5513C71.4403 37.8582 75.6118 40.42 79.4786 42.6093C81.4709 43.7372 83.4583 45.0035 85.5493 45.9183C85.8093 46.032 86.3991 46.2169 85.7402 45.9437C84.8178 45.5613 83.7701 44.942 83.093 44.2129C81.2889 42.27 78.7059 40.9606 76.5642 39.4276C74.7108 38.101 72.9057 36.7088 71.0535 35.3804C69.8372 34.5082 67.0885 33.5452 66.3191 32.1987C65.9976 31.6361 62.2243 29.9465 64.97 30.2515C67.0861 30.4867 68.9871 31.4779 70.9644 32.1987C75.3298 33.7903 79.6047 35.4991 83.9075 37.2386C84.8016 37.6 85.5987 38.4174 84.0475 37.9004C80.4728 36.7088 77.0638 35.0789 73.6243 33.5478C71.8706 32.7671 70.0721 32.1242 68.3045 31.3842C67.8042 31.1748 66.6542 30.7756 66.37 30.2388C66.1122 29.752 69.2216 30.3198 69.539 30.4679C72.252 31.734 74.8773 32.7685 77.3914 34.4641C77.5051 34.5408 80.2471 36.6029 79.7332 36.8313C79.2321 37.054 78.4991 36.2858 78.1041 36.0804C76.6144 35.3058 75.0795 34.6169 73.6243 33.7769C72.532 33.1463 71.5885 32.3181 70.5571 31.6006C70.2362 31.3773 69.5105 30.7878 70.3408 30.9388C70.9042 31.0412 71.393 31.4649 71.8934 31.7151C73.6154 32.5761 75.3773 33.2959 76.9587 34.4132C78.7219 35.6589 80.9834 37.4617 81.8967 39.5167C82.5175 40.9135 80.5302 41.93 79.555 40.9548C77.1166 38.5164 75.9063 35.0683 73.6497 32.5296C72.5644 31.3086 70.4851 29.0934 68.7245 29.0934C68.0276 29.0934 67.6762 29.7525 67.0572 29.9588C65.535 30.4663 63.9878 30.5735 62.412 30.8242C61.1754 31.021 57.4182 31.1551 58.6703 31.1551C60.6998 31.1551 62.7749 31.2453 64.741 31.7915C65.6902 32.0552 66.7565 32.2397 67.6554 32.6442C67.9353 32.7702 68.5245 32.9878 67.9227 32.9878C66.3451 32.9878 64.7979 32.7669 63.2265 32.6569C58.6075 32.3336 53.9317 32.5296 49.3033 32.5296C45.101 32.5296 40.9788 32.6098 36.8183 33.2042C34.3153 33.5617 41.8751 33.2169 44.4035 33.2169C48.65 33.2169 52.8965 33.2169 57.143 33.2169C58.0389 33.2169 57.4516 33.265 56.9267 33.166C54.6588 32.7381 52.4874 32.0065 50.156 31.7151C44.8215 31.0483 28.7283 32.2808 34.0311 31.397C36.0906 31.0537 38.5109 31.3823 40.56 31.5624C41.5773 31.6518 42.586 31.7281 43.6017 31.8297C44.3342 31.9029 44.2283 32.0918 43.4999 31.9569C39.1492 31.1512 34.7035 30.9317 30.3022 30.5824C29.9151 30.5517 26.1406 30.1993 27.375 30.7479C29.001 31.4706 30.4669 32.6435 31.7149 33.8914C32.5612 34.7377 34.2705 35.8444 32.0076 35.2786C29.7707 34.7194 25.186 34.1332 25.186 34.1332C25.186 34.1332 26.6847 34.3841 27.3623 34.7059C29.4241 35.6853 31.3227 37.0863 33.153 38.4349C34.1572 39.1749 35.0923 39.9782 36.0802 40.7257C36.4219 40.9843 36.8871 41.2204 36.2838 40.7512C33.8601 38.8661 31.3352 37.2644 28.7241 35.6604C28.5316 35.5422 26.0442 34.3546 26.9169 35.2786C27.3436 35.7305 28.495 36.5051 28.495 37.2131C28.495 37.9526 26.5623 36.2914 26.4587 36.1441C25.9166 35.3737 25.9777 35.0496 25.1987 35.0496C24.0516 35.0496 25.5194 37.3117 25.9496 37.8495C26.2742 38.2552 26.2593 39.8222 26.3441 40.3312C26.5532 41.5856 26.9169 42.945 26.9169 44.2129C26.9169 45.4791 28.1215 45.8166 29.2204 46.1601C30.1737 46.458 31.3509 46.2746 32.3385 46.2746C33.6274 46.2746 35.0164 46.4219 36.2965 46.2619C37.3162 46.1344 38.2944 45.7791 39.2746 45.4728C40.35 45.1368 41.5717 45.2547 42.6727 44.951C43.345 44.7656 44.3175 44.7444 45.0144 44.671C45.581 44.6114 46.1705 44.325 46.7325 44.2001C48.4199 43.8252 49.704 42.3942 51.1487 41.5148C54.9717 39.1877 59.1679 37.9816 63.5192 37.1113C65.2804 36.759 67.1703 36.6531 68.9663 36.6531C69.3536 36.6531 71.2968 36.9871 69.959 37.0986C68.4968 37.2204 67.1991 36.9157 65.8864 36.2713C63.0146 34.8615 60.2123 34.5914 57.0285 34.5914C51.7759 34.5914 46.5945 33.6751 41.3491 33.6751C39.316 33.6751 37.4217 34.1332 35.3929 34.1332" stroke="#FF23BF" stroke-width="3" stroke-linecap="round"/>
<path d="M26.6879 36.6532C26.6879 38.6056 26.4484 40.4908 27.7824 41.973C28.3914 42.6497 29.0917 42.9012 29.895 43.3475C30.646 43.7647 31.2886 44.3749 31.0277 42.9402C30.8432 41.9254 29.9269 40.6826 29.5514 39.6312C29.3908 39.1817 29.3745 36.6939 29.3859 36.7041C29.9527 37.2079 30.3075 38.2275 30.7604 38.8422C31.4968 39.8415 32.3542 40.7454 33.1531 41.693C34.0118 42.7115 35.0147 43.5888 36.0293 44.442C36.3927 44.7476 37.26 46.2492 37.7984 46.2492C38.4595 46.2492 36.4222 43.5643 36.3093 43.4111C34.6714 41.1882 34.0994 39.1194 33.1531 36.5259C33.034 36.1996 31.4391 31.7753 32.4149 33.2678C33.7991 35.3848 36.1239 37.529 38.1293 39.0331C40.4309 40.7593 42.4801 42.909 45.0018 44.3274C45.103 44.3844 45.9054 44.9786 45.9054 44.7729C45.9054 44.2703 45.0548 43.6313 44.6836 43.4238C43.5019 42.7635 36.8574 34.9851 37.1238 34.7187C37.4595 34.3831 40.6023 36.8646 41.0564 37.124C42.8936 38.1739 45.0707 38.8546 46.7199 40.2039C47.7194 41.0218 49.0651 41.2017 50.2707 41.5784C50.4165 41.624 51.4239 41.9115 51.3906 41.7948C51.2734 41.3846 50.1436 40.3473 49.8252 40.1403C48.1296 39.0382 46.6299 37.4358 45.0145 36.195C43.8566 35.3056 42.6464 34.4933 41.4764 33.6242C41.3546 33.5337 40.0604 32.6197 40.331 32.5424C40.6073 32.4635 41.0873 32.9387 41.2473 33.1278C42.1352 34.1772 43.2766 34.7141 44.4036 35.4568C47.8456 37.7254 51.7919 39.7907 55.7305 41.0566C56.7476 41.3836 57.0062 41.1487 56.4177 40.0894C55.6217 38.6566 53.2765 37.5377 51.8997 36.7804C50.8687 36.2134 49.2855 34.9188 48.8071 33.8023C48.7036 33.5609 49.5219 34.3647 49.6216 34.4769C50.5765 35.5512 52.9157 35.7683 54.1778 36.2459C56.8581 37.2601 59.4659 38.5089 62.1448 39.5294C64.1441 40.2911 62.3895 38.99 61.3939 38.6004C59.8028 37.9778 58.5871 36.6891 57.2831 35.6223C56.5248 35.0018 56.6861 34.3255 57.614 34.8714C58.2752 35.2603 58.7542 35.9816 59.3958 36.4241C60.2288 36.9986 61.1109 37.2094 62.043 37.5695C62.8615 37.8857 63.6745 38.093 64.4865 38.4349C65.2894 38.773 66.5659 39.4022 67.4646 39.4022C68.3461 39.4022 65.6356 39.2732 64.8301 39.6312C62.5649 40.638 60.3305 41.9469 58.0722 43.0166C56.1431 43.9303 54.0321 44.4291 51.9124 44.9001C50.348 45.2478 48.8869 45.1953 47.3053 45.371C46.3624 45.4758 45.3849 46.0455 44.5054 46.0455C42.0257 46.0455 39.5553 46.2746 37.1111 46.2746C35.5059 46.2746 36.5759 45.7343 37.582 45.6001C38.5676 45.4687 39.5668 45.6233 40.5601 45.4728C41.8781 45.2731 43.0867 44.9205 44.3781 44.6201C46.319 44.1688 48.0649 42.5957 49.8252 41.693C51.531 40.8182 53.5328 39.5335 55.425 39.1731C57.4232 38.7925 59.0933 38.4858 61.1775 38.4858C62.2284 38.4858 62.8829 38.2902 62.8829 39.5167C62.8829 40.462 61.2306 41.6577 60.3121 41.693C58.012 41.7814 56.0532 41.2013 53.796 40.7766C49.9514 40.0534 45.88 39.8127 41.9728 40.1021C39.7693 40.2653 37.5632 41.3523 35.533 42.1257C34.4792 42.5271 32.9531 43.7547 31.8295 43.7547C31.3456 43.7547 32.8213 43.8568 33.2803 43.7038C34.1423 43.4165 34.8649 43.2372 35.8003 43.1184C38.7466 42.7442 42.6972 43.6407 45.4472 42.2657C47.6878 41.1454 49.1994 39.7185 51.0215 38.0786C51.6435 37.5188 52.7413 37.206 53.4905 36.8313C54.1447 36.5042 54.6266 35.7368 55.4377 35.7368C56.4164 35.7368 57.3612 35.6568 58.2885 35.9659C59.2533 36.2875 59.4208 36.6532 60.5921 36.6532" stroke="#FF23BF" stroke-width="3" stroke-linecap="round"/>
<path d="M90.1074 31.3428C91.2271 31.3428 92.8086 31.6356 93.8809 31.3292C95.0292 31.0011 95.0502 29.6325 96.2155 29.6325" stroke="#FF23BF" stroke-width="3" stroke-linecap="round"/>
<path d="M92.7949 31.5871C95.5133 31.5871 97.5222 31.5445 99.8803 30.3655" stroke="#FF23BF" stroke-width="3" stroke-linecap="round"/>
</svg>
